name C:\Users\r0593348\3dpredictsim\Results\Batchsim_tmt_linear_v2\Pog_s1_tmt_aCst_d05_k250_ig24_pas.mot
datacolumns 128
datarows 4
range 0.54178712 0.57429434
endheader
time	pelvis_tilt	pelvis_list	pelvis_rotation	pelvis_tx	pelvis_ty	pelvis_tz	hip_flexion_l	hip_adduction_l	hip_rotation_l	hip_flexion_r	hip_adduction_r	hip_rotation_r	knee_angle_l	knee_angle_r	ankle_angle_l	ankle_angle_r	subtalar_angle_l	subtalar_angle_r	tmt_angle_l	tmt_angle_r	mtp_angle_l	mtp_angle_r	lumbar_extension	lumbar_bending	lumbar_rotation	arm_flex_l	arm_add_l	arm_rot_l	arm_flex_r	arm_add_r	arm_rot_r	elbow_flex_l	elbow_flex_r	pro_sup_l	pro_sup_r	glut_med1_l/activation	glut_med2_l/activation	glut_med3_l/activation	glut_min1_l/activation	glut_min2_l/activation	glut_min3_l/activation	semimem_l/activation	semiten_l/activation	bifemlh_l/activation	bifemsh_l/activation	sar_l/activation	add_long_l/activation	add_brev_l/activation	add_mag1_l/activation	add_mag2_l/activation	add_mag3_l/activation	tfl_l/activation	pect_l/activation	grac_l/activation	glut_max1_l/activation	glut_max2_l/activation	glut_max3_l/activation	iliacus_l/activation	psoas_l/activation	quad_fem_l/activation	gem_l/activation	peri_l/activation	rect_fem_l/activation	vas_med_l/activation	vas_int_l/activation	vas_lat_l/activation	med_gas_l/activation	lat_gas_l/activation	soleus_l/activation	tib_post_l/activation	flex_dig_l/activation	flex_hal_l/activation	tib_ant_l/activation	per_brev_l/activation	per_long_l/activation	per_tert_l/activation	ext_dig_l/activation	ext_hal_l/activation	ercspn_l/activation	intobl_l/activation	extobl_l/activation	glut_med1_r/activation	glut_med2_r/activation	glut_med3_r/activation	glut_min1_r/activation	glut_min2_r/activation	glut_min3_r/activation	semimem_r/activation	semiten_r/activation	bifemlh_r/activation	bifemsh_r/activation	sar_r/activation	add_long_r/activation	add_brev_r/activation	add_mag1_r/activation	add_mag2_r/activation	add_mag3_r/activation	tfl_r/activation	pect_r/activation	grac_r/activation	glut_max1_r/activation	glut_max2_r/activation	glut_max3_r/activation	iliacus_r/activation	psoas_r/activation	quad_fem_r/activation	gem_r/activation	peri_r/activation	rect_fem_r/activation	vas_med_r/activation	vas_int_r/activation	vas_lat_r/activation	med_gas_r/activation	lat_gas_r/activation	soleus_r/activation	tib_post_r/activation	flex_dig_r/activation	flex_hal_r/activation	tib_ant_r/activation	per_brev_r/activation	per_long_r/activation	per_tert_r/activation	ext_dig_r/activation	ext_hal_r/activation	ercspn_r/activation	intobl_r/activation	extobl_r/activation	
          0.54178712	         -2.85722156	         -0.93820179	         -5.24551334	          0.67723390	          0.87018759	          0.00307173	         26.98281291	         -0.57069939	         -3.82668464	        -18.06756535	          1.42885804	          6.02107590	         -7.69697335	         -5.45834496	          6.01924017	         -9.45443835	          4.59411552	          7.41208979	          0.12523221	          4.45643318	         -0.09410958	         25.78516999	          0.50980246	          3.23775468	          1.56411043	         -9.38704471	        -13.45824041	         10.47143790	          2.67204180	        -13.46161680	          9.58175006	         18.70612130	         28.15690128	         86.51662706	         86.51662706	          0.05832349	          0.05000259	          0.12898640	          0.05000021	          0.05000030	          0.05807995	          0.09641161	          0.06969031	          0.14558981	          0.06969023	          0.05000051	          0.06059483	          0.10670962	          0.06684900	          0.12023388	          0.12476002	          0.05000076	          0.05000152	          0.06969699	          0.05902986	          0.05903332	          0.14241745	          0.05000005	          0.05000010	          0.08258440	          0.05000026	          0.05017145	          0.05000004	          0.05000009	          0.05000009	          0.05000009	          0.05000001	          0.05000005	          0.05000000	          0.05902967	          0.05902991	          0.05902990	          0.43394599	          0.27212526	          0.18699717	          0.17216574	          0.43587343	          0.22842337	          0.05320901	          0.14697576	          0.13538763	          0.26490513	          0.08427092	          0.06944897	          0.25019805	          0.15969689	          0.08527238	          0.05000104	          0.05000010	          0.05000010	          0.05000011	          0.08799261	          0.05000066	          0.05000008	          0.05000015	          0.05000060	          0.05000050	          0.24811188	          0.05000039	          0.05000021	          0.05000292	          0.05000161	          0.05000095	          0.37128940	          0.67509858	          0.05000015	          0.05000137	          0.05902972	          0.31055657	          0.08562584	          0.07695142	          0.07143300	          0.19866773	          0.28602428	          0.24336282	          0.23812613	          0.21470755	          0.28625642	          0.05000002	          0.08632302	          0.15089098	          0.05000017	          0.05000005	          0.05000014	          0.05000000	          0.05000001	          0.05000001	
          0.55262286	         -2.83851753	         -0.99054643	         -5.38758637	          0.69425069	          0.86894895	          0.00292852	         26.59304362	         -0.38386923	         -3.62235115	        -17.90718569	          1.28576895	          5.81594629	         -7.79695246	         -7.55134649	          5.48322229	        -10.11893609	          4.15227578	          8.49064510	          0.15398579	          4.15624536	         -0.06251190	         26.79466068	          0.73234324	          3.05837090	          1.62326720	        -10.58715501	        -13.45142001	         10.25200230	          2.43697756	        -13.48092112	          9.84555053	         18.73396024	         29.01775266	         86.51662706	         86.51662706	          0.05000010	          0.05000031	          0.19622414	          0.05902979	          0.05902971	          0.05000036	          0.08166354	          0.05902980	          0.12331896	          0.05902975	          0.05902945	          0.09713473	          0.12518992	          0.27166967	          0.19070866	          0.14892646	          0.05000005	          0.07765685	          0.05903555	          0.05000021	          0.05000304	          0.21139852	          0.05902981	          0.05902664	          0.06995153	          0.16046252	          0.12614384	          0.07995311	          0.18516236	          0.20763961	          0.15081338	          0.05358547	          0.05185040	          0.05902978	          0.05000000	          0.05000015	          0.05000018	          0.60461578	          0.28805156	          0.15839230	          0.46680641	          0.54216012	          0.35671880	          0.05000001	          0.12449288	          0.11467739	          0.22438264	          0.07138001	          0.05882539	          0.21192532	          0.13526809	          0.07222829	          0.05000043	          0.05000005	          0.05000004	          0.05000011	          0.07453248	          0.12870855	          0.17562750	          0.05002375	          0.05000129	          0.05000018	          0.21015825	          0.07647473	          0.05895165	          0.05000056	          0.05000035	          0.05000039	          0.31449329	          0.59970817	          0.05899373	          0.05000051	          0.05000064	          0.26305075	          0.10062021	          0.15927771	          0.11619542	          0.16827753	          0.24227117	          0.22319107	          0.20170016	          0.18186411	          0.24246795	          0.05000000	          0.07311826	          0.13281331	          0.05000003	          0.05000000	          0.05000003	          0.05000005	          0.05000005	          0.08071632	
          0.56345860	         -2.81255474	         -1.02148277	         -5.49954165	          0.71155153	          0.86760877	          0.00277147	         26.12166157	         -0.20962214	         -3.38299009	        -17.63102941	          1.13102928	          5.60330338	         -8.45950936	         -9.85831492	          4.65704878	        -10.75723055	          3.71376839	          9.56632425	          0.16517608	          3.72121800	         -0.04585916	         27.50036044	          0.97503683	          2.84273006	          1.67559770	        -11.79490382	        -13.45134874	         10.06942512	          2.13263353	        -13.50588686	         10.07471185	         18.75830543	         29.86342681	         86.51662706	         86.51662706	          0.05000003	          0.05000010	          0.18792574	          0.05000004	          0.05000005	          0.05000015	          0.06917148	          0.05000006	          0.10445487	          0.05000001	          0.05000007	          0.08227609	          0.10603972	          0.23011282	          0.22947751	          0.16252630	          0.05902992	          0.06577828	          0.05000503	          0.11025664	          0.12445471	          0.18153551	          0.05000005	          0.05000006	          0.17310480	          0.13591660	          0.10684765	          0.06969027	          0.25964409	          0.27636057	          0.21341142	          0.05000001	          0.05000004	          0.05000001	          0.05902973	          0.05903114	          0.05902995	          0.51212775	          0.32913657	          0.17853653	          0.39539916	          0.46170946	          0.30215155	          0.05000000	          0.10544921	          0.09713520	          0.19005885	          0.06046103	          0.05902976	          0.17950715	          0.11457616	          0.06117955	          0.05194919	          0.05000009	          0.05000021	          0.05000001	          0.06313130	          0.19276825	          0.34378045	          0.14797037	          0.05906430	          0.15896534	          0.17801037	          0.06477649	          0.05000017	          0.05902949	          0.05902983	          0.05903004	          0.26638527	          0.50797140	          0.05902976	          0.05902973	          0.05000017	          0.22281189	          0.13538682	          0.13538691	          0.11734491	          0.14253613	          0.20521096	          0.18904954	          0.17084611	          0.15404443	          0.20537768	          0.05000006	          0.06193338	          0.12805526	          0.05000006	          0.05000026	          0.05000018	          0.05001036	          0.06969038	          0.07202996	
          0.57429434	         -2.78170627	         -1.03327030	         -5.58328576	          0.72897292	          0.86613922	          0.00262690	         25.50800027	         -0.07771270	         -3.11616537	        -17.24364968	          0.97332603	          5.37859573	         -9.35999075	        -12.35043324	          4.00531081	        -11.30022056	          3.24237627	         10.59876494	         -0.15819978	          3.12934507	         -0.17031801	         27.71196179	          1.22251962	          2.59516414	          1.71742622	        -12.97659278	        -13.46478757	          9.96229458	          1.78686501	        -13.53392124	         10.27943010	         18.75110292	         30.69380218	         86.51662706	         86.51662706	          0.22349075	          0.24712983	          0.36824440	          0.31571706	          0.19860378	          0.20421864	          0.07680108	          0.09458400	          0.09518065	          0.08227622	          0.05903019	          0.06969034	          0.08981884	          0.19491251	          0.19437446	          0.17045132	          0.05000019	          0.05571671	          0.08227550	          0.16825140	          0.16896123	          0.19102353	          0.05902964	          0.05000071	          0.14662499	          0.11512556	          0.23823561	          0.05902975	          0.21992635	          0.23408571	          0.18076589	          0.05000004	          0.05000008	          0.05000000	          0.05000000	          0.05000120	          0.05000022	          0.56444273	          0.28492394	          0.15122584	          0.64897410	          0.58733075	          0.36011475	          0.05000002	          0.08931866	          0.08227643	          0.20579274	          0.05121231	          0.05000000	          0.18964678	          0.09704947	          0.05182094	          0.07210459	          0.05000007	          0.05000005	          0.05000014	          0.06055546	          0.18080671	          0.29119299	          0.12533543	          0.05002960	          0.13464850	          0.15078019	          0.11025600	          0.05000023	          0.05000029	          0.05000025	          0.05000036	          0.22563635	          0.47767203	          0.05000002	          0.05000008	          0.05000003	          0.18872836	          0.11467671	          0.11467679	          0.09939467	          0.12073238	          0.17381986	          0.16013064	          0.14471181	          0.13048032	          0.17396111	          0.05000054	          0.12704339	          0.11270320	          0.11467631	          0.16433181	          0.05911188	          0.06734423	          0.05902985	          0.06101154	
